<svg width="23.404053" height="23.404297" viewBox="0 0 23.4041 23.4043" fill="none" xmlns="http://www.w3.org/2000/svg" xmlns:xlink="http://www.w3.org/1999/xlink">
	<desc>
			Created with Pixso.
	</desc>
	<defs/>
	<path id="Vector" d="M11.69 7.79C9.55 7.79 7.79 9.55 7.79 11.7C7.79 13.85 9.55 15.6 11.69 15.6C13.84 15.6 15.6 13.85 15.6 11.7C15.6 9.55 13.84 7.79 11.69 7.79ZM23.4 11.7C23.4 10.08 23.41 8.48 23.32 6.87C23.23 4.99 22.8 3.33 21.43 1.96C20.06 0.59 18.4 0.16 16.53 0.07C14.91 -0.02 13.31 0 11.7 0C10.08 0 8.48 -0.02 6.87 0.07C4.99 0.16 3.33 0.59 1.96 1.96C0.59 3.33 0.16 4.99 0.07 6.87C-0.02 8.48 0 10.08 0 11.7C0 13.31 -0.02 14.91 0.07 16.53C0.16 18.4 0.59 20.06 1.96 21.43C3.33 22.81 4.99 23.23 6.87 23.32C8.48 23.41 10.08 23.4 11.7 23.4C13.31 23.4 14.91 23.41 16.53 23.32C18.4 23.23 20.06 22.8 21.43 21.43C22.81 20.06 23.23 18.4 23.32 16.53C23.42 14.91 23.4 13.31 23.4 11.7ZM11.69 17.7C8.37 17.7 5.69 15.02 5.69 11.7C5.69 8.37 8.37 5.69 11.69 5.69C15.02 5.69 17.7 8.37 17.7 11.7C17.7 15.02 15.02 17.7 11.69 17.7ZM17.94 6.85C17.17 6.85 16.54 6.22 16.54 5.45C16.54 4.67 17.17 4.04 17.94 4.04C18.72 4.04 19.35 4.67 19.35 5.45C19.35 5.63 19.31 5.81 19.24 5.98C19.17 6.15 19.07 6.31 18.94 6.44C18.81 6.57 18.65 6.67 18.48 6.74C18.31 6.81 18.13 6.85 17.94 6.85Z" fill="#FFFFFF" fill-opacity="1.000000" fill-rule="nonzero"/>
</svg>
