<svg width="33.000000" height="33.000000" viewBox="0 0 33 33" fill="none" xmlns="http://www.w3.org/2000/svg" xmlns:xlink="http://www.w3.org/1999/xlink">
	<desc>
			Created with Pixso.
	</desc>
	<defs>
		<clipPath id="clip2_6438">
			<rect id="bx:bxs-user" rx="-0.500000" width="32.000000" height="32.000000" transform="translate(0.500000 0.500000)" fill="white" fill-opacity="0"/>
		</clipPath>
	</defs>
	<rect id="bx:bxs-user" rx="-0.500000" width="32.000000" height="32.000000" transform="translate(0.500000 0.500000)" fill="#FFFFFF" fill-opacity="0"/>
	<g clip-path="url(#clip2_6438)">
		<path id="Vector" d="M10.31 8.93C10.31 12.34 13.08 15.12 16.5 15.12C19.91 15.12 22.68 12.34 22.68 8.93C22.68 5.52 19.91 2.75 16.5 2.75C13.08 2.75 10.31 5.52 10.31 8.93ZM27.5 28.87L28.87 28.87L28.87 27.5C28.87 22.19 24.55 17.87 19.25 17.87L13.75 17.87C8.44 17.87 4.12 22.19 4.12 27.5L4.12 28.87L27.5 28.87Z" fill="#F77F00" fill-opacity="1.000000" fill-rule="nonzero"/>
	</g>
</svg>
