<svg width="35.000000" height="35.000000" viewBox="0 0 35 35" fill="none" xmlns="http://www.w3.org/2000/svg" xmlns:xlink="http://www.w3.org/1999/xlink">
	<desc>
			Created with Pixso.
	</desc>
	<defs>
		<clipPath id="clip2_6435">
			<rect id="clarity:shopping-cart-solid" rx="-0.500000" width="34.000000" height="34.000000" transform="translate(0.500000 0.500000)" fill="white" fill-opacity="0"/>
		</clipPath>
	</defs>
	<rect id="clarity:shopping-cart-solid" rx="-0.500000" width="34.000000" height="34.000000" transform="translate(0.500000 0.500000)" fill="#FFFFFF" fill-opacity="0"/>
	<g clip-path="url(#clip2_6435)">
		<path id="Vector" d="M15.55 28.68C15.55 30.02 14.46 31.11 13.12 31.11C11.78 31.11 10.69 30.02 10.69 28.68C10.69 27.33 11.78 26.25 13.12 26.25C14.46 26.25 15.55 27.33 15.55 28.68Z" fill="#F77F00" fill-opacity="1.000000" fill-rule="evenodd"/>
		<path id="Vector" d="M28.19 28.68C28.19 30.02 27.1 31.11 25.76 31.11C24.42 31.11 23.33 30.02 23.33 28.68C23.33 27.33 24.42 26.25 25.76 26.25C27.1 26.25 28.19 27.33 28.19 28.68Z" fill="#F77F00" fill-opacity="1.000000" fill-rule="evenodd"/>
		<path id="Vector" d="M32.18 6.21C32.08 6.09 31.97 5.99 31.84 5.93C31.7 5.86 31.56 5.83 31.41 5.83L8.95 5.83L8.51 4.44C8.46 4.29 8.38 4.15 8.27 4.04C8.16 3.93 8.02 3.85 7.87 3.81L3.88 2.58C3.76 2.54 3.63 2.53 3.5 2.54C3.38 2.55 3.25 2.59 3.14 2.65C2.91 2.77 2.74 2.98 2.66 3.23C2.59 3.47 2.61 3.74 2.73 3.97C2.86 4.2 3.06 4.37 3.31 4.45L6.8 5.52L11.25 19.59L9.67 20.89L9.54 21.01C9.15 21.47 8.93 22.04 8.91 22.64C8.9 23.24 9.09 23.83 9.46 24.3C9.73 24.62 10.07 24.88 10.45 25.05C10.83 25.22 11.25 25.29 11.66 25.27L27.89 25.27C28.15 25.27 28.39 25.17 28.58 24.99C28.76 24.81 28.86 24.56 28.86 24.3C28.86 24.04 28.76 23.8 28.58 23.61C28.39 23.43 28.15 23.33 27.89 23.33L11.51 23.33C11.39 23.32 11.29 23.29 11.19 23.23C11.09 23.18 11.02 23.09 10.96 23C10.91 22.9 10.88 22.79 10.88 22.68C10.88 22.56 10.91 22.45 10.96 22.36L13.3 20.41L28.31 20.41C28.53 20.42 28.75 20.35 28.92 20.21C29.1 20.08 29.23 19.89 29.28 19.67L32.39 7.03C32.42 6.89 32.41 6.74 32.38 6.6C32.34 6.45 32.27 6.32 32.18 6.21Z" fill="#F77F00" fill-opacity="1.000000" fill-rule="nonzero"/>
	</g>
</svg>
