<svg width="27" height="26" viewBox="0 0 27 26" fill="none" xmlns="http://www.w3.org/2000/svg">
<path d="M23.715 7.58348C23.5206 7.25915 23.2423 6.98887 22.9071 6.79901C22.5719 6.60914 22.1913 6.50618 21.8025 6.50015H7.4025L6.75 4.05181C6.68407 3.81547 6.53699 3.60759 6.33271 3.46202C6.12843 3.31645 5.87898 3.24177 5.625 3.25015H3.375C3.07663 3.25015 2.79048 3.36428 2.5795 3.56745C2.36853 3.77061 2.25 4.04616 2.25 4.33348C2.25 4.6208 2.36853 4.89635 2.5795 5.09951C2.79048 5.30268 3.07663 5.41681 3.375 5.41681H4.77L7.875 16.5318C7.94092 16.7682 8.08801 16.976 8.29229 17.1216C8.49657 17.2672 8.74602 17.3419 9 17.3335H19.125C19.3327 17.3329 19.5363 17.2769 19.713 17.1717C19.8897 17.0665 20.0328 16.9163 20.1262 16.7376L23.8162 9.63098C23.9762 9.30816 24.0506 8.95224 24.033 8.59497C24.0153 8.2377 23.9061 7.8902 23.715 7.58348Z" fill="#F77F00"/>
<path d="M8.4375 22.75C9.36948 22.75 10.125 22.0225 10.125 21.125C10.125 20.2275 9.36948 19.5 8.4375 19.5C7.50552 19.5 6.75 20.2275 6.75 21.125C6.75 22.0225 7.50552 22.75 8.4375 22.75Z" fill="#F77F00"/>
<path d="M19.6875 22.75C20.6195 22.75 21.375 22.0225 21.375 21.125C21.375 20.2275 20.6195 19.5 19.6875 19.5C18.7555 19.5 18 20.2275 18 21.125C18 22.0225 18.7555 22.75 19.6875 22.75Z" fill="#F77F00"/>
</svg>
