<svg width="24" height="25" viewBox="0 0 24 25" fill="none" xmlns="http://www.w3.org/2000/svg">
<path fill-rule="evenodd" clip-rule="evenodd" d="M17.0459 16.003L23.3226 22.5038C23.5432 22.7325 23.667 23.0425 23.6669 23.3658C23.6668 23.689 23.5427 23.999 23.322 24.2275C23.1012 24.456 22.8018 24.5843 22.4897 24.5842C22.1776 24.5841 21.8783 24.4555 21.6577 24.2269L15.3811 17.7261C13.5047 19.2313 11.1452 19.9396 8.78253 19.7069C6.41986 19.4743 4.23149 18.3182 2.66262 16.4738C1.09374 14.6293 0.26221 12.2352 0.337182 9.7783C0.412154 7.32144 1.388 4.98643 3.06619 3.2483C4.74439 1.51017 6.99888 0.49947 9.37102 0.421821C11.7432 0.344172 14.0548 1.2054 15.8356 2.83031C17.6164 4.45521 18.7327 6.72174 18.9573 9.1688C19.1819 11.6159 18.498 14.0596 17.0447 16.003H17.0459ZM9.66672 17.3334C11.5232 17.3334 13.3037 16.5695 14.6165 15.2099C15.9292 13.8502 16.6667 12.0062 16.6667 10.0834C16.6667 8.16053 15.9292 6.31647 14.6165 4.95683C13.3037 3.59719 11.5232 2.83335 9.66672 2.83335C7.8102 2.83335 6.02973 3.59719 4.71697 4.95683C3.40422 6.31647 2.66672 8.16053 2.66672 10.0834C2.66672 12.0062 3.40422 13.8502 4.71697 15.2099C6.02973 16.5695 7.8102 17.3334 9.66672 17.3334Z" fill="#F77F00"/>
</svg>
