<svg width="30.232422" height="28.000000" viewBox="0 0 30.2324 28" fill="none" xmlns="http://www.w3.org/2000/svg" xmlns:xlink="http://www.w3.org/1999/xlink">
	<desc>
			Created with Pixso.
	</desc>
	<defs>
		<clipPath id="clip2_913">
			<rect id="icon-park-outline:transaction-order" rx="-0.500000" width="29.232548" height="27.000000" transform="translate(0.500000 0.500000)" fill="white" fill-opacity="0"/>
		</clipPath>
	</defs>
	<rect id="icon-park-outline:transaction-order" rx="-0.500000" width="29.232548" height="27.000000" transform="translate(0.500000 0.500000)" fill="#FFFFFF" fill-opacity="0"/>
	<g clip-path="url(#clip2_913)">
		<path id="Vector" d="M23.3 4.66C24 4.66 24.56 5.18 24.56 5.83L24.56 24.5C24.56 25.14 24 25.66 23.3 25.66L6.92 25.66C6.23 25.66 5.66 25.14 5.66 24.5L5.66 5.83C5.66 5.18 6.23 4.66 6.92 4.66L23.3 4.66Z" stroke="#7C797C" stroke-opacity="1.000000" stroke-width="2.000000" stroke-linejoin="round"/>
		<path id="Vector" d="M11.33 2.33L11.33 5.83" stroke="#7C797C" stroke-opacity="1.000000" stroke-width="2.000000" stroke-linejoin="round" stroke-linecap="round"/>
		<path id="Vector" d="M18.89 2.33L18.89 5.83" stroke="#7C797C" stroke-opacity="1.000000" stroke-width="2.000000" stroke-linejoin="round" stroke-linecap="round"/>
		<path id="Vector" d="M10.07 11.08L20.15 11.08" stroke="#7C797C" stroke-opacity="1.000000" stroke-width="2.000000" stroke-linejoin="round" stroke-linecap="round"/>
		<path id="Vector" d="M10.07 15.75L17.63 15.75" stroke="#7C797C" stroke-opacity="1.000000" stroke-width="2.000000" stroke-linejoin="round" stroke-linecap="round"/>
		<path id="Vector" d="M10.07 20.41L15.11 20.41" stroke="#7C797C" stroke-opacity="1.000000" stroke-width="2.000000" stroke-linejoin="round" stroke-linecap="round"/>
	</g>
</svg>
