<svg width="32.000000" height="32.000000" viewBox="0 0 32 32" fill="none" xmlns="http://www.w3.org/2000/svg" xmlns:xlink="http://www.w3.org/1999/xlink">
	<desc>
			Created with Pixso.
	</desc>
	<defs>
		<clipPath id="clip2_949">
			<rect id="carbon:phone-filled" rx="-0.500000" width="31.000000" height="31.000000" transform="translate(0.500000 0.500000)" fill="white" fill-opacity="0"/>
		</clipPath>
	</defs>
	<rect id="carbon:phone-filled" rx="-0.500000" width="31.000000" height="31.000000" transform="translate(0.500000 0.500000)" fill="#FFFFFF" fill-opacity="0"/>
	<g clip-path="url(#clip2_949)">
		<path id="Vector" d="M20.33 21.48L22.57 19.24C22.87 18.94 23.25 18.73 23.66 18.65C24.08 18.56 24.51 18.6 24.91 18.76L27.64 19.85C28.03 20.01 28.38 20.28 28.62 20.64C28.86 21 28.99 21.41 29 21.85L29 26.85C28.99 27.14 28.93 27.43 28.81 27.7C28.7 27.96 28.53 28.21 28.31 28.41C28.1 28.61 27.85 28.76 27.57 28.86C27.3 28.97 27.01 29.01 26.72 29C7.59 27.81 3.72 11.6 3 5.41C2.96 5.1 2.99 4.79 3.09 4.5C3.18 4.21 3.33 3.94 3.54 3.71C3.74 3.49 4 3.3 4.28 3.18C4.56 3.06 4.86 2.99 5.16 3L10 3C10.43 3 10.85 3.13 11.2 3.37C11.56 3.61 11.84 3.95 12 4.35L13.09 7.08C13.25 7.48 13.29 7.91 13.2 8.33C13.12 8.74 12.91 9.12 12.62 9.43L10.38 11.66C10.38 11.66 11.66 20.39 20.33 21.48Z" fill="#F77F00" fill-opacity="1.000000" fill-rule="nonzero"/>
	</g>
</svg>
