<svg width="25.000000" height="25.893066" viewBox="0 0 25 25.8931" fill="none" xmlns="http://www.w3.org/2000/svg" xmlns:xlink="http://www.w3.org/1999/xlink">
	<desc>
			Created with Pixso.
	</desc>
	<defs>
		<clipPath id="clip2_6427">
			<rect id="fe:search" rx="-0.500000" width="24.000000" height="24.892857" transform="translate(0.500000 0.500000)" fill="white" fill-opacity="0"/>
		</clipPath>
	</defs>
	<rect id="fe:search" rx="-0.500000" width="24.000000" height="24.892857" transform="translate(0.500000 0.500000)" fill="#FFFFFF" fill-opacity="0"/>
	<g clip-path="url(#clip2_6427)">
		<path id="Vector" d="M17 16.07L22.6 21.87C22.8 22.08 22.91 22.35 22.91 22.64C22.91 22.93 22.8 23.21 22.6 23.41C22.41 23.62 22.14 23.73 21.86 23.73C21.58 23.73 21.31 23.62 21.12 23.41L15.51 17.61C13.84 18.95 11.73 19.58 9.62 19.38C7.51 19.17 5.56 18.14 4.16 16.49C2.76 14.84 2.01 12.71 2.08 10.51C2.15 8.32 3.02 6.23 4.52 4.68C6.02 3.13 8.03 2.23 10.15 2.16C12.27 2.09 14.33 2.86 15.92 4.31C17.51 5.76 18.51 7.78 18.71 9.97C18.91 12.15 18.3 14.33 17 16.07L17 16.07ZM10.41 17.26C12.07 17.26 13.66 16.58 14.83 15.36C16 14.15 16.66 12.5 16.66 10.78C16.66 9.07 16 7.42 14.83 6.21C13.66 4.99 12.07 4.31 10.41 4.31C8.75 4.31 7.16 4.99 5.99 6.21C4.82 7.42 4.16 9.07 4.16 10.78C4.16 12.5 4.82 14.15 5.99 15.36C7.16 16.58 8.75 17.26 10.41 17.26Z" fill="#FFFFFF" fill-opacity="1.000000" fill-rule="evenodd"/>
	</g>
</svg>
