<svg width="34.201660" height="33.000000" viewBox="0 0 34.2017 33" fill="none" xmlns="http://www.w3.org/2000/svg" xmlns:xlink="http://www.w3.org/1999/xlink">
	<desc>
			Created with Pixso.
	</desc>
	<defs>
		<filter id="filter_2_926_dd" x="0.000000" y="0.000000" width="34.201660" height="33.000000" filterUnits="userSpaceOnUse" color-interpolation-filters="sRGB">
			<feFlood flood-opacity="0" result="BackgroundImageFix"/>
			<feColorMatrix in="SourceAlpha" type="matrix" values="0 0 0 0 0 0 0 0 0 0 0 0 0 0 0 0 0 0 127 0" result="hardAlpha"/>
			<feOffset dx="0" dy="4"/>
			<feGaussianBlur stdDeviation="1.33333"/>
			<feComposite in2="hardAlpha" operator="out" k2="-1" k3="1"/>
			<feColorMatrix type="matrix" values="0 0 0 0 0 0 0 0 0 0 0 0 0 0 0 0 0 0 0.25 0"/>
			<feBlend mode="normal" in2="BackgroundImageFix" result="effect_dropShadow_1"/>
			<feBlend mode="normal" in="SourceGraphic" in2="effect_dropShadow_1" result="shape"/>
		</filter>
		<clipPath id="clip2_926">
			<rect id="icon-park-outline:like" rx="-0.500000" width="25.201542" height="24.000000" transform="translate(4.500000 0.500000)" fill="white" fill-opacity="0"/>
		</clipPath>
	</defs>
	<g filter="url(#filter_2_926_dd)">
		<rect id="icon-park-outline:like" rx="-0.500000" width="25.201542" height="24.000000" transform="translate(4.500000 0.500000)" fill="#FFFFFF" fill-opacity="0"/>
		<g clip-path="url(#clip2_926)">
			<path id="Vector" d="M6.18 9.89C6.18 15.62 13.27 20.83 17.1 22.04C20.92 20.83 28.01 15.62 28.01 9.89C28.01 6.73 25.32 4.16 22.01 4.16C19.98 4.16 18.18 5.12 17.1 6.6C16.54 5.84 15.81 5.23 14.95 4.81C14.1 4.38 13.15 4.16 12.18 4.16C8.87 4.16 6.18 6.73 6.18 9.89Z" stroke="#7C797C" stroke-opacity="1.000000" stroke-width="2.000000" stroke-linejoin="round"/>
		</g>
	</g>
</svg>
