<svg width="60.000000" height="60.000000" viewBox="0 0 60 60" fill="none" xmlns="http://www.w3.org/2000/svg" xmlns:xlink="http://www.w3.org/1999/xlink">
	<desc>
			Created with Pixso.
	</desc>
	<defs/>
	<path id="Vector" d="M0 30C0 22.04 3.16 14.41 8.78 8.78C14.41 3.16 22.04 0 30 0C37.95 0 45.58 3.16 51.21 8.78C56.83 14.41 60 22.04 60 30C60 37.95 56.83 45.58 51.21 51.21C45.58 56.83 37.95 60 30 60C22.04 60 14.41 56.83 8.78 51.21C3.16 45.58 0 37.95 0 30L0 30ZM28.28 42.83L45.56 21.24L42.43 18.75L27.71 37.15L17.28 28.46L14.72 31.53L28.28 42.84L28.28 42.83Z" fill="#038F00" fill-opacity="1.000000" fill-rule="evenodd"/>
</svg>
