<svg width="32.000000" height="32.000000" viewBox="0 0 32 32" fill="none" xmlns="http://www.w3.org/2000/svg" xmlns:xlink="http://www.w3.org/1999/xlink">
	<desc>
			Created with Pixso.
	</desc>
	<defs>
		<clipPath id="clip2_960">
			<rect id="bx:bxl-telegram" rx="-0.500000" width="31.000000" height="31.000000" transform="translate(0.500000 0.500000)" fill="white" fill-opacity="0"/>
		</clipPath>
	</defs>
	<rect id="bx:bxl-telegram" rx="-0.500000" width="31.000000" height="31.000000" transform="translate(0.500000 0.500000)" fill="#FFFFFF" fill-opacity="0"/>
	<g clip-path="url(#clip2_960)">
		<path id="Vector" d="M27.55 4.95L3.91 14.07C2.29 14.71 2.3 15.61 3.61 16.02L9.68 17.91L23.72 9.05C24.39 8.65 25 8.86 24.5 9.31L13.12 19.57L13.12 19.57L13.12 19.57L12.7 25.83C13.31 25.83 13.58 25.55 13.93 25.22L16.88 22.35L23.01 26.88C24.14 27.5 24.95 27.18 25.23 25.83L29.26 6.86C29.67 5.21 28.63 4.46 27.55 4.95Z" fill="#F77F00" fill-opacity="1.000000" fill-rule="nonzero"/>
	</g>
</svg>
