<svg width="30.000000" height="30.000000" viewBox="0 0 30 30" fill="none" xmlns="http://www.w3.org/2000/svg" xmlns:xlink="http://www.w3.org/1999/xlink">
	<desc>
			Created with Pixso.
	</desc>
	<defs>
		<clipPath id="clip2_698">
			<rect id="bx:bxl-telegram" rx="-0.500000" width="29.000000" height="29.000000" transform="translate(0.500000 0.500000)" fill="white" fill-opacity="0"/>
		</clipPath>
	</defs>
	<rect id="bx:bxl-telegram" rx="-0.500000" width="29.000000" height="29.000000" transform="translate(0.500000 0.500000)" fill="#FFFFFF" fill-opacity="0"/>
	<g clip-path="url(#clip2_698)">
		<path id="Vector" d="M25.83 4.64L3.66 13.19C2.15 13.79 2.16 14.64 3.39 15.02L9.08 16.79L22.24 8.48C22.86 8.1 23.43 8.31 22.96 8.72L12.3 18.35L12.3 18.35L12.3 18.35L11.91 24.22C12.48 24.22 12.73 23.95 13.06 23.64L15.82 20.95L21.57 25.2C22.63 25.78 23.39 25.48 23.65 24.22L27.43 6.43C27.81 4.89 26.84 4.18 25.83 4.64Z" fill="#0066FF" fill-opacity="1.000000" fill-rule="nonzero"/>
	</g>
</svg>
